<svg xmlns="http://www.w3.org/2000/svg" xmlns:svg="http://www.w3.org/2000/svg" id="svg2" width="2668.06" height="1422.97" version="1.1"><metadata id="metadata8"/><path style="color:#000;fill:gray;fill-opacity:1;stroke:none;stroke-width:10;marker:none;visibility:visible;display:inline;overflow:visible;enable-background:accumulate" id="path3845" d="m 31.597308,473.05459 c 2.92693,180.35888 -78.37228,492.8901 151.908112,514.15046 81.55766,7.5297 144.42121,-18.78366 192.35701,-72.80796 l 17.07843,61.1228 83.5944,0 0,-502.4653 -110.56034,0 0,364.04014 c -30.54763,43.76726 -74.31652,63.85896 -131.23422,63.81936 -65.18398,-0.045 -81.70564,-36.7944 -92.58305,-79.99892 l 0,-347.86058 z"/><path id="path3866" d="m 728.21625,904.50959 c 115.8144,10.8792 161.8581,-88.58568 160.8968,-186.06498 -0.916,-92.892 -26.6129,-166.35123 -124.9422,-167.18881 -52.5777,-0.44786 -94.89457,23.57829 -123.39727,62.92052 l 0,257.07527 c 21.7808,16.0738 48.92347,29.6396 87.44267,33.258 z M 635.57048,529.96581 c 34.2558,-35.05963 79.17147,-66.70318 147.33817,-66.10169 139.59315,1.23175 224.59785,94.4136 222.45755,255.50847 -1.9308,145.3317 -80.1695,268.29286 -252.96605,270.76266 -44.4837,0.6358 -84.37537,-14.23386 -111.74487,-35.59316 l 0,448.42781 -106.8992,-37.5804 0,-896.44064 85.16947,0 z" style="color:#000;fill:gray;fill-opacity:1;fill-rule:nonzero;stroke:none;stroke-width:10;marker:none;visibility:visible;display:inline;overflow:visible;enable-background:accumulate"/><path style="color:#000;fill:gray;fill-opacity:1;fill-rule:nonzero;stroke:none;stroke-width:10;marker:none;visibility:visible;display:inline;overflow:visible;enable-background:accumulate" id="path3914" d="m 1143.2868,553.53739 c 74.6335,-137.89439 198.1574,-113.89974 244.2417,-88.22416 l -22.2881,90.08153 C 1285.7587,524.665 1168.8893,544.23 1147.443,673.33657 l 0,303.67695 -106.3105,0 0,-521.91574 87.2957,0 z"/><path id="path3930" d="m 1578.3331,554.79588 c -78.3251,2.43522 -123.4518,69.41766 -119.9775,180.76124 2.6377,84.53126 30.776,168.06716 125.7298,171.01427 84.7543,2.63064 126.0946,-70.8012 125.7298,-179.87512 -0.3114,-93.12211 -37.9105,-174.80965 -131.4821,-171.90039 z m 7.3958,-83.29194 c 120.1685,2.4022 225.6036,66.79309 227.6286,255.19234 1.5086,140.35776 -85.9615,260.30477 -223.5198,260.50877 -151.6334,0.225 -233.4218,-91.92137 -235.8461,-255.19227 -2.2265,-149.94377 93.4221,-263.2738 231.7373,-260.50884 z" style="color:#000;fill:gray;fill-opacity:1;fill-rule:nonzero;stroke:none;stroke-width:10;marker:none;visibility:visible;display:inline;overflow:visible;enable-background:accumulate"/><path style="color:#000;fill:gray;fill-opacity:1;fill-rule:nonzero;stroke:none;stroke-width:10;marker:none;visibility:visible;display:inline;overflow:visible;enable-background:accumulate" id="path3939" d="m 2069.5968,554.79588 c -78.3251,2.43522 -123.4518,69.41766 -119.9776,180.76124 2.6379,84.53126 30.776,168.06716 125.73,171.01427 84.7542,2.63064 126.0945,-70.8012 125.7299,-179.87512 -0.3114,-93.12211 -37.9105,-174.80965 -131.4823,-171.90039 z m 7.3959,-83.29194 c 120.1684,2.4022 225.6037,66.79309 227.6286,255.19234 1.5085,140.35776 -85.9615,260.30477 -223.5198,260.50877 -151.6334,0.225 -233.4217,-91.92137 -235.8463,-255.19227 -2.2265,-149.94377 93.4223,-263.2738 231.7375,-260.50884 z"/><path style="color:#000;fill:gray;fill-opacity:1;fill-rule:nonzero;stroke:none;stroke-width:10;marker:none;visibility:visible;display:inline;overflow:visible;enable-background:accumulate" id="path3941" d="m 2630.5548,869.75635 c -86.1966,25.10182 -138.4125,18.3854 -147.0591,-29.1273 l 0,-304.42732 140.0563,0 0,-87.38189 -140.7347,0 0,-228.51248 -106.9901,-37.63109 0,266.355 -74.2079,0 0,87.17046 73.814,0 0,326.03781 c 12.0324,62.77765 39.1919,116.17533 147.5129,115.36166 48.694,-0.36586 91.2721,-8.3355 125.1157,-25.16098 z"/><path id="path3957" d="m 263.92979,223.6819 c -30.36396,0 -48.97882,-18.61485 -48.97882,-48.97881 0,-30.36396 18.61486,-48.97882 48.97882,-48.97882 30.36396,0 48.97881,18.61486 48.97881,48.97882 0,30.36396 -18.61485,48.97881 -48.97881,48.97881 z m 36.78767,209.84483 c 48.44671,-6.0243 86.09172,-6.04244 134.47004,-4.49433 19.58559,-0.48905 32.31188,-10.45258 33.25798,-26.96593 2.23883,-39.077 -24.3447,-64.50699 -68.76313,-71.45973 -33.22531,-5.2007 -62.39384,26.89938 -99.41432,57.97676 l 0,-66.06655 c 28.46404,19.63398 52.71158,12.65166 77.39213,-13.48296 24.68055,-26.13462 22.40415,-62.24395 -1.79773,-95.27965 50.57188,-19.24077 65.08321,-60.16878 48.98812,-98.42567 C 408.75546,77.071774 366.8653,63.520694 331.81807,84.317848 329.17069,39.734764 306.56946,2.5426842 260.35834,2.9706042 214.14722,3.3985242 184.85372,41.771594 192.9435,83.868418 142.23672,65.926584 102.09665,88.231238 92.270668,128.81164 c -9.82598,40.5804 9.584902,76.44032 60.223922,86.74043 -25.27637,22.75268 -30.40438,63.49966 -5.84262,95.27965 24.56176,31.77999 52.918,21.24085 76.89781,17.52785 l 0,59.7745 c -42.20228,-37.80741 -70.94087,-57.79249 -98.91999,-56.17904 -40.270342,2.32225 -75.409902,24.19301 -71.010302,75.05519 1.41075,16.3092 15.39697,23.4834 28.76367,22.47162 50.614312,-5.64208 91.222332,-1.5712 141.166622,3.59545 l 0,106.92105 77.16768,27.03284 z" style="color:#000;fill:gray;fill-opacity:1;fill-rule:nonzero;stroke:none;stroke-width:10;marker:none;visibility:visible;display:inline;overflow:visible;enable-background:accumulate"/></svg>