<svg xmlns="http://www.w3.org/2000/svg" xmlns:svg="http://www.w3.org/2000/svg" id="svg2" width="624.296" height="321.125" version="1.1" viewBox="0 0 624.296 321.125" xml:space="preserve"><metadata id="metadata8"/><g id="g10" transform="matrix(1.3333333,0,0,1.3333333,0,1.1361468e-5)"><g id="g12"><g id="g14"><path style="fill:none;stroke:#e6e6e6;stroke-width:1.5;stroke-linecap:butt;stroke-linejoin:miter;stroke-miterlimit:4;stroke-dasharray:none;stroke-opacity:1" id="path16" d="m 63.633,195.359 v -3.297"/></g><g id="g18"><path style="fill:none;stroke:#e6e6e6;stroke-width:1.5;stroke-linecap:butt;stroke-linejoin:miter;stroke-miterlimit:4;stroke-dasharray:none;stroke-opacity:1" id="path20" d="m 73.633,195.359 v -3.297"/></g><g id="g22"><path style="fill:none;stroke:#e6e6e6;stroke-width:1.49952805;stroke-linecap:butt;stroke-linejoin:miter;stroke-miterlimit:4;stroke-dasharray:2.999055,2.999055;stroke-dashoffset:0;stroke-opacity:1" id="path24" d="M 53.633,195.359 V 31.336"/></g><g id="g26"><path style="fill:none;stroke:#e6e6e6;stroke-width:1.49952805;stroke-linecap:butt;stroke-linejoin:miter;stroke-miterlimit:4;stroke-dasharray:2.999055,2.999055;stroke-dashoffset:0;stroke-opacity:1" id="path28" d="M 83.633,195.359 V 31.336"/></g><g id="g30"><path style="fill:none;stroke:#e6e6e6;stroke-width:1.49952805;stroke-linecap:butt;stroke-linejoin:miter;stroke-miterlimit:4;stroke-dasharray:2.999055,2.999055;stroke-dashoffset:0;stroke-opacity:1" id="path32" d="M 113.633,195.359 V 31.336"/></g><g id="g34"><path style="fill:none;stroke:#e6e6e6;stroke-width:1.49952805;stroke-linecap:butt;stroke-linejoin:miter;stroke-miterlimit:4;stroke-dasharray:2.999055,2.999055;stroke-dashoffset:0;stroke-opacity:1" id="path36" d="M 143.633,195.359 V 31.336"/></g><g id="g38"><path style="fill:none;stroke:#e6e6e6;stroke-width:1.49952805;stroke-linecap:butt;stroke-linejoin:miter;stroke-miterlimit:4;stroke-dasharray:2.999055,2.999055;stroke-dashoffset:0;stroke-opacity:1" id="path40" d="M 173.633,195.359 V 31.336"/></g><g id="g42"><path style="fill:none;stroke:#e6e6e6;stroke-width:1.49952805;stroke-linecap:butt;stroke-linejoin:miter;stroke-miterlimit:4;stroke-dasharray:2.999055,2.999055;stroke-dashoffset:0;stroke-opacity:1" id="path44" d="M 203.633,195.359 V 31.336"/></g><g id="g46"><path style="fill:none;stroke:#e6e6e6;stroke-width:1.49952805;stroke-linecap:butt;stroke-linejoin:miter;stroke-miterlimit:4;stroke-dasharray:2.999055,2.999055;stroke-dashoffset:0;stroke-opacity:1" id="path48" d="M 233.633,195.359 V 31.336"/></g><g id="g50"><path style="fill:none;stroke:#e6e6e6;stroke-width:1.49952805;stroke-linecap:butt;stroke-linejoin:miter;stroke-miterlimit:4;stroke-dasharray:2.999055,2.999055;stroke-dashoffset:0;stroke-opacity:1" id="path52" d="M 263.633,195.359 V 31.336"/></g><g id="g54"><path style="fill:none;stroke:#e6e6e6;stroke-width:1.49952805;stroke-linecap:butt;stroke-linejoin:miter;stroke-miterlimit:4;stroke-dasharray:2.999055,2.999055;stroke-dashoffset:0;stroke-opacity:1" id="path56" d="M 293.633,195.359 V 31.336"/></g><g id="g58"><path style="fill:none;stroke:#e6e6e6;stroke-width:1.49952805;stroke-linecap:butt;stroke-linejoin:miter;stroke-miterlimit:4;stroke-dasharray:2.999055,2.999055;stroke-dashoffset:0;stroke-opacity:1" id="path60" d="M 323.633,195.359 V 31.336"/></g><g id="g62"><path style="fill:none;stroke:#e6e6e6;stroke-width:1.49952805;stroke-linecap:butt;stroke-linejoin:miter;stroke-miterlimit:4;stroke-dasharray:2.999055,2.999055;stroke-dashoffset:0;stroke-opacity:1" id="path64" d="M 353.633,195.359 V 31.336"/></g><g id="g66"><path style="fill:none;stroke:#e6e6e6;stroke-width:1.49952805;stroke-linecap:butt;stroke-linejoin:miter;stroke-miterlimit:4;stroke-dasharray:2.999055,2.999055;stroke-dashoffset:0;stroke-opacity:1" id="path68" d="M 383.633,195.359 V 31.336"/></g><g id="g70"><path style="fill:none;stroke:#e6e6e6;stroke-width:1.49952805;stroke-linecap:butt;stroke-linejoin:miter;stroke-miterlimit:4;stroke-dasharray:2.999055,2.999055;stroke-dashoffset:0;stroke-opacity:1" id="path72" d="M 413.633,195.359 V 31.336"/></g><g id="g74"><path style="fill:none;stroke:#e6e6e6;stroke-width:1.5;stroke-linecap:butt;stroke-linejoin:miter;stroke-miterlimit:4;stroke-dasharray:none;stroke-opacity:1" id="path76" d="m 33.633,195.359 v -3.297"/></g><g id="g78"><path style="fill:none;stroke:#e6e6e6;stroke-width:1.5;stroke-linecap:butt;stroke-linejoin:miter;stroke-miterlimit:4;stroke-dasharray:none;stroke-opacity:1" id="path80" d="m 43.633,195.359 v -3.297"/></g><g id="g82"><path style="fill:none;stroke:#e6e6e6;stroke-width:1.5;stroke-linecap:butt;stroke-linejoin:miter;stroke-miterlimit:4;stroke-dasharray:none;stroke-opacity:1" id="path84" d="m 93.633,195.359 v -3.297"/></g><g id="g86"><path style="fill:none;stroke:#e6e6e6;stroke-width:1.5;stroke-linecap:butt;stroke-linejoin:miter;stroke-miterlimit:4;stroke-dasharray:none;stroke-opacity:1" id="path88" d="m 103.633,195.359 v -3.297"/></g><g id="g90"><path style="fill:none;stroke:#e6e6e6;stroke-width:1.5;stroke-linecap:butt;stroke-linejoin:miter;stroke-miterlimit:4;stroke-dasharray:none;stroke-opacity:1" id="path92" d="m 123.633,195.359 v -3.297"/></g><g id="g94"><path style="fill:none;stroke:#e6e6e6;stroke-width:1.5;stroke-linecap:butt;stroke-linejoin:miter;stroke-miterlimit:4;stroke-dasharray:none;stroke-opacity:1" id="path96" d="m 133.633,195.359 v -3.297"/></g><g id="g98"><path style="fill:none;stroke:#e6e6e6;stroke-width:1.5;stroke-linecap:butt;stroke-linejoin:miter;stroke-miterlimit:4;stroke-dasharray:none;stroke-opacity:1" id="path100" d="m 153.633,195.359 v -3.297"/></g><g id="g102"><path style="fill:none;stroke:#e6e6e6;stroke-width:1.5;stroke-linecap:butt;stroke-linejoin:miter;stroke-miterlimit:4;stroke-dasharray:none;stroke-opacity:1" id="path104" d="m 163.633,195.359 v -3.297"/></g><g id="g106"><path style="fill:none;stroke:#e6e6e6;stroke-width:1.5;stroke-linecap:butt;stroke-linejoin:miter;stroke-miterlimit:4;stroke-dasharray:none;stroke-opacity:1" id="path108" d="m 183.633,195.359 v -3.297"/></g><g id="g110"><path style="fill:none;stroke:#e6e6e6;stroke-width:1.5;stroke-linecap:butt;stroke-linejoin:miter;stroke-miterlimit:4;stroke-dasharray:none;stroke-opacity:1" id="path112" d="m 193.633,195.359 v -3.297"/></g><g id="g114"><path style="fill:none;stroke:#e6e6e6;stroke-width:1.5;stroke-linecap:butt;stroke-linejoin:miter;stroke-miterlimit:4;stroke-dasharray:none;stroke-opacity:1" id="path116" d="m 213.633,195.359 v -3.297"/></g><g id="g118"><path style="fill:none;stroke:#e6e6e6;stroke-width:1.5;stroke-linecap:butt;stroke-linejoin:miter;stroke-miterlimit:4;stroke-dasharray:none;stroke-opacity:1" id="path120" d="m 223.633,195.359 v -3.297"/></g><g id="g122"><path style="fill:none;stroke:#e6e6e6;stroke-width:1.5;stroke-linecap:butt;stroke-linejoin:miter;stroke-miterlimit:4;stroke-dasharray:none;stroke-opacity:1" id="path124" d="m 243.633,195.359 v -3.297"/></g><g id="g126"><path style="fill:none;stroke:#e6e6e6;stroke-width:1.5;stroke-linecap:butt;stroke-linejoin:miter;stroke-miterlimit:4;stroke-dasharray:none;stroke-opacity:1" id="path128" d="m 253.633,195.359 v -3.297"/></g><g id="g130"><path style="fill:none;stroke:#e6e6e6;stroke-width:1.5;stroke-linecap:butt;stroke-linejoin:miter;stroke-miterlimit:4;stroke-dasharray:none;stroke-opacity:1" id="path132" d="m 273.633,195.359 v -3.297"/></g><g id="g134"><path style="fill:none;stroke:#e6e6e6;stroke-width:1.5;stroke-linecap:butt;stroke-linejoin:miter;stroke-miterlimit:4;stroke-dasharray:none;stroke-opacity:1" id="path136" d="m 283.633,195.359 v -3.297"/></g><g id="g138"><path style="fill:none;stroke:#e6e6e6;stroke-width:1.5;stroke-linecap:butt;stroke-linejoin:miter;stroke-miterlimit:4;stroke-dasharray:none;stroke-opacity:1" id="path140" d="m 303.633,195.359 v -3.297"/></g><g id="g142"><path style="fill:none;stroke:#e6e6e6;stroke-width:1.5;stroke-linecap:butt;stroke-linejoin:miter;stroke-miterlimit:4;stroke-dasharray:none;stroke-opacity:1" id="path144" d="m 313.633,195.359 v -3.297"/></g><g id="g146"><path style="fill:none;stroke:#e6e6e6;stroke-width:1.5;stroke-linecap:butt;stroke-linejoin:miter;stroke-miterlimit:4;stroke-dasharray:none;stroke-opacity:1" id="path148" d="m 333.633,195.359 v -3.297"/></g><g id="g150"><path style="fill:none;stroke:#e6e6e6;stroke-width:1.5;stroke-linecap:butt;stroke-linejoin:miter;stroke-miterlimit:4;stroke-dasharray:none;stroke-opacity:1" id="path152" d="m 343.633,195.359 v -3.297"/></g><g id="g154"><path style="fill:none;stroke:#e6e6e6;stroke-width:1.5;stroke-linecap:butt;stroke-linejoin:miter;stroke-miterlimit:4;stroke-dasharray:none;stroke-opacity:1" id="path156" d="m 363.633,195.359 v -3.297"/></g><g id="g158"><path style="fill:none;stroke:#e6e6e6;stroke-width:1.5;stroke-linecap:butt;stroke-linejoin:miter;stroke-miterlimit:4;stroke-dasharray:none;stroke-opacity:1" id="path160" d="m 373.633,195.359 v -3.297"/></g><g id="g162"><path style="fill:none;stroke:#e6e6e6;stroke-width:1.5;stroke-linecap:butt;stroke-linejoin:miter;stroke-miterlimit:4;stroke-dasharray:none;stroke-opacity:1" id="path164" d="m 393.633,195.359 v -3.297"/></g><g id="g166"><path style="fill:none;stroke:#e6e6e6;stroke-width:1.5;stroke-linecap:butt;stroke-linejoin:miter;stroke-miterlimit:4;stroke-dasharray:none;stroke-opacity:1" id="path168" d="m 403.633,195.359 v -3.297"/></g><g id="g170"><path style="fill:none;stroke:#e6e6e6;stroke-width:1.5;stroke-linecap:butt;stroke-linejoin:miter;stroke-miterlimit:4;stroke-dasharray:none;stroke-opacity:1" id="path172" d="m 423.633,195.359 v -3.297"/></g><g id="g174"><path style="fill:none;stroke:#e6e6e6;stroke-width:1.5;stroke-linecap:butt;stroke-linejoin:miter;stroke-miterlimit:4;stroke-dasharray:none;stroke-opacity:1" id="path176" d="m 433.633,195.359 v -3.297"/></g><g id="g178"><path style="fill:none;stroke:#000;stroke-width:1.5;stroke-linecap:butt;stroke-linejoin:miter;stroke-miterlimit:4;stroke-dasharray:none;stroke-opacity:1" id="path180" d="m 23.633,31.336 h 420 v 164.023 h -420 z"/></g><g id="g182"><path style="fill:#55d400;fill-opacity:1;fill-rule:evenodd;stroke:#000;stroke-width:1.5;stroke-linecap:butt;stroke-linejoin:miter;stroke-miterlimit:4;stroke-dasharray:none;stroke-opacity:1" id="path184" d="m 23.633,119.027 h 30 v 12.414 h -30 z"/></g><g id="g186"><path style="fill:#55d400;fill-opacity:1;fill-rule:evenodd;stroke:#000;stroke-width:1.5;stroke-linecap:butt;stroke-linejoin:miter;stroke-miterlimit:4;stroke-dasharray:none;stroke-opacity:1" id="path188" d="m 53.633,131.445 h 110 v 12.414 h -110 z"/></g><path style="fill:#fff;fill-opacity:1;fill-rule:evenodd;stroke:none" id="path190" d="m 25.238,97.605 h 54.84 v 17.77 h -54.84 z"/><text style="font-variant:normal;font-size:7.54562807px;font-family:'Nimbus Sans';-inkscape-font-specification:NimbusSanL-Regu;writing-mode:lr-tb;fill:#000;fill-opacity:1;fill-rule:nonzero;stroke:none" id="text196" transform="translate(26.50887,104.58417)"><tspan id="tspan192" x="0 4.61 8.806 15.091 17.189 21.384 25.157 29.375 33.57" y="0">Femtocode</tspan><tspan id="tspan194" x="0 2.513 4.61 7.123 11.318 17.627 19.724 25.595 29.368 31.465 33.54 37.736 41.931 46.126 50.344" y="8.3">(from Oct 2016)</tspan></text><path style="fill:#fff;fill-opacity:1;fill-rule:evenodd;stroke:none" id="path198" d="m 80.289,117.258 h 58.59 v 10.273 h -58.59 z"/><path style="fill:#fff;fill-opacity:1;fill-rule:evenodd;stroke:none" id="path200" d="m 103.594,110.293 h 17.34 v 17.504 h -17.34 z"/><text style="font-variant:normal;font-size:7.54562807px;font-family:'Nimbus Sans';-inkscape-font-specification:NimbusSanL-Regu;writing-mode:lr-tb;fill:#000;fill-opacity:1;fill-rule:nonzero;stroke:none" id="text206" transform="translate(95.852322,117.00043)"><tspan id="tspan202" x="0 5.87 10.903 17.189 21.384" y="0">OAMap</tspan><tspan id="tspan204" x="-16.381 -13.868 -9.673 -7.998 -4.225 -.007 2.091 6.286 10.482 12.994 17.19 18.887 23.083 27.278 31.051 35.246 39.442" y="8.3">(also unreleased)</tspan></text><path style="fill:#fff;fill-opacity:1;fill-rule:evenodd;stroke:none" id="path208" d="m 243.051,126.32 h 102.281 v 13.52 H 243.051 Z"/><text style="font-variant:normal;font-size:11.99999905px;font-family:'Nimbus Sans';-inkscape-font-specification:NimbusSanL-Regu;writing-mode:lr-tb;fill:#000;fill-opacity:1;fill-rule:nonzero;stroke:none" id="text212" transform="translate(243.64237,138.34617)"><tspan id="tspan210" x="0 8.004 16.668 22.668 31.332 38.04 42.036 48.708 52.044 60.048 64.08 68.076 74.748 80.748 84.084 90.756 94.092" y="0">Awkward Array 0.x</tspan></text><path style="fill:#fff;fill-opacity:1;fill-rule:evenodd;stroke:none" id="path214" d="m 312.941,170.715 h 102.277 v 13.258 H 312.941 Z"/><text style="font-variant:normal;font-size:11.99999905px;font-family:'Nimbus Sans';-inkscape-font-specification:NimbusSanL-Regu;writing-mode:lr-tb;fill:#000;fill-opacity:1;fill-rule:nonzero;stroke:none" id="text218" transform="translate(313.64239,181.15154)"><tspan id="tspan216" x="0 8.004 16.668 22.668 31.332 38.04 42.036 48.708 52.044 60.048 64.08 68.076 74.748 80.748 84.084 90.756 94.092" y="0">Awkward Array 1.x</tspan></text><path style="fill:#ff0;fill-opacity:1;fill-rule:evenodd;stroke:none" id="path220" d="m 353.633,156.277 h 90 v 12.414 h -90 z"/><path style="fill:#55d400;fill-opacity:1;fill-rule:evenodd;stroke:none" id="path222" d="m 283.633,156.277 h 70 v 12.414 h -70 z"/><g id="g224"><path style="fill:none;stroke:#000;stroke-width:1.5;stroke-linecap:butt;stroke-linejoin:miter;stroke-miterlimit:4;stroke-dasharray:none;stroke-opacity:1" id="path226" d="m 283.633,156.277 h 160 v 12.414 h -160 z"/></g><path style="fill:#55d400;fill-opacity:1;fill-rule:evenodd;stroke:none" id="path228" d="m 143.633,143.859 h 30 v 12.418 h -30 z"/><path style="fill:#ff0;fill-opacity:1;fill-rule:evenodd;stroke:none" id="path230" d="m 173.633,143.859 h 260.5 v 12.418 h -260.5 z"/><path style="fill:#ccc;fill-opacity:1;fill-rule:evenodd;stroke:none" id="path232" d="m 434.133,143.859 h 9.5 v 12.418 h -9.5 z"/><g id="g234"><path style="fill:none;stroke:#000;stroke-width:1.5;stroke-linecap:butt;stroke-linejoin:miter;stroke-miterlimit:4;stroke-dasharray:none;stroke-opacity:1" id="path236" d="m 143.633,143.859 h 300 v 12.418 h -300 z"/></g><g id="g238"><path style="fill:#ff0;fill-opacity:1;fill-rule:evenodd;stroke:#000;stroke-width:1.5;stroke-linecap:butt;stroke-linejoin:miter;stroke-miterlimit:4;stroke-dasharray:none;stroke-opacity:1" id="path240" d="m 83.633,70.527 h 89.996 V 82.945 H 83.633 Z"/></g><path style="fill:#ccc;fill-opacity:1;fill-rule:evenodd;stroke:none" id="path242" d="m 434.133,82.945 h 9.5 v 12.414 h -9.5 z"/><path style="fill:#fff;fill-opacity:1;fill-rule:evenodd;stroke:none" id="path244" d="m 100.809,56.145 h 55.309 v 11.551 h -55.309 z"/><text style="font-variant:normal;font-size:11.99999905px;font-family:'Nimbus Sans';-inkscape-font-specification:NimbusSanL-Regu;writing-mode:lr-tb;fill:#000;fill-opacity:1;fill-rule:nonzero;stroke:none" id="text248" transform="translate(100.59218,65.014896)"><tspan id="tspan246" x="0 8.664 15.336 19.332 26.04 32.712 36.048 39.384 46.056 49.392" y="0">Uproot 2.x</tspan></text><path style="fill:#fff;fill-opacity:1;fill-rule:evenodd;stroke:none" id="path250" d="M 40.281,44.457 H 95.316 V 56.145 H 40.281 Z"/><path style="fill:#fff;fill-opacity:1;fill-rule:evenodd;stroke:none" id="path252" d="M 78.719,40.172 H 89.692 V 55.473 H 78.719 Z"/><text style="font-variant:normal;font-size:11.99999905px;font-family:'Nimbus Sans';-inkscape-font-specification:NimbusSanL-Regu;writing-mode:lr-tb;fill:#000;fill-opacity:1;fill-rule:nonzero;stroke:none" id="text256" transform="translate(40.593686,52.598529)"><tspan id="tspan254" x="0 8.664 15.336 19.332 26.04 32.712 36.048 39.384 46.056 49.392" y="0">Uproot 1.x</tspan></text><path style="fill:#fff;fill-opacity:1;fill-rule:evenodd;stroke:none" id="path258" d="m 281.691,65.602 h 55.305 v 14.426 h -55.305 z"/><text style="font-variant:normal;font-size:11.99999905px;font-family:'Nimbus Sans';-inkscape-font-specification:NimbusSanL-Regu;writing-mode:lr-tb;fill:#000;fill-opacity:1;fill-rule:nonzero;stroke:none" id="text262" transform="translate(280.59226,77.431264)"><tspan id="tspan260" x="0 8.664 15.336 19.332 26.04 32.712 36.048 39.384 46.056 49.392" y="0">Uproot 3.x</tspan></text><path style="fill:#fff;fill-opacity:1;fill-rule:evenodd;stroke:none" id="path264" d="m 386.051,111.07 h 55.309 v 11.555 h -55.309 z"/><text style="font-variant:normal;font-size:11.99999905px;font-family:'Nimbus Sans';-inkscape-font-specification:NimbusSanL-Regu;writing-mode:lr-tb;fill:#000;fill-opacity:1;fill-rule:nonzero;stroke:none" id="text268" transform="translate(385.59379,120.23646)"><tspan id="tspan266" x="0 8.664 15.336 19.332 26.04 32.712 36.048 39.384 46.056 49.392" y="0">Uproot 4.x</tspan></text><path style="fill:#ff0;fill-opacity:1;fill-rule:evenodd;stroke:none" id="path270" d="M 173.629,82.945 H 434.133 V 95.359 H 173.629 Z"/><g id="g272"><path style="fill:none;stroke:#000;stroke-width:1.50236201;stroke-linecap:butt;stroke-linejoin:miter;stroke-miterlimit:4;stroke-dasharray:none;stroke-opacity:1" id="path274" d="M 173.629,82.945 H 443.633 V 95.359 H 173.629 Z"/></g><path style="fill:#ff0;fill-opacity:1;fill-rule:evenodd;stroke:none" id="path276" d="m 393.633,95.359 h 50 v 12.418 h -50 z"/><path style="fill:#55d400;fill-opacity:1;fill-rule:evenodd;stroke:none" id="path278" d="m 373.633,95.359 h 20 v 12.418 h -20 z"/><g id="g280"><path style="fill:none;stroke:#000;stroke-width:1.5;stroke-linecap:butt;stroke-linejoin:miter;stroke-miterlimit:4;stroke-dasharray:none;stroke-opacity:1" id="path282" d="m 373.633,95.359 h 70 v 12.418 h -70 z"/></g><path style="fill:#55d400;fill-opacity:1;fill-rule:evenodd;stroke:none" id="path284" d="m 53.633,58.113 h 2.18 v 12.414 h -2.18 z"/><path style="fill:#ff0;fill-opacity:1;fill-rule:evenodd;stroke:none" id="path286" d="m 55.812,58.113 h 27.82 v 12.414 h -27.82 z"/><g id="g288"><path style="fill:none;stroke:#000;stroke-width:1.5;stroke-linecap:butt;stroke-linejoin:miter;stroke-miterlimit:4;stroke-dasharray:none;stroke-opacity:1" id="path290" d="m 53.633,58.113 h 30 v 12.414 h -30 z"/></g><g id="g292"><path style="fill:#ccc;fill-opacity:1;fill-rule:evenodd;stroke:#000;stroke-width:.99212599;stroke-linecap:butt;stroke-linejoin:miter;stroke-miterlimit:4;stroke-dasharray:none;stroke-opacity:1" id="path294" d="m 389.188,14.668 h 10.039 v 10.039 h -10.039 z"/></g><text style="font-variant:normal;font-size:7.54562807px;font-family:'Nimbus Sans';-inkscape-font-specification:NimbusSanL-Regu;writing-mode:lr-tb;fill:#000;fill-opacity:1;fill-rule:nonzero;stroke:none" id="text298" transform="translate(403.42203,21.616392)"><tspan id="tspan296" x="0 5.448 9.643 13.839 16.374 20.569 24.342 28.538 30.635 34.831" y="0">Deprecated</tspan></text><g id="g300"><path style="fill:#55d400;fill-opacity:1;fill-rule:evenodd;stroke:#000;stroke-width:.99212599;stroke-linecap:butt;stroke-linejoin:miter;stroke-miterlimit:4;stroke-dasharray:none;stroke-opacity:1" id="path302" d="m 264.184,14.668 h 10.039 v 10.039 h -10.039 z"/></g><text style="font-variant:normal;font-size:7.54562807px;font-family:'Nimbus Sans';-inkscape-font-specification:NimbusSanL-Regu;writing-mode:lr-tb;fill:#000;fill-opacity:1;fill-rule:nonzero;stroke:none" id="text306" transform="translate(278.4195,21.616392)"><tspan id="tspan304" x="0 5.448 9.643 13.416 17.611 19.309 23.505 27.7 33.986 38.204 42.399" y="0">Development</tspan></text><g id="g308"><path style="fill:#ff0;fill-opacity:1;fill-rule:evenodd;stroke:#000;stroke-width:.99212599;stroke-linecap:butt;stroke-linejoin:miter;stroke-miterlimit:4;stroke-dasharray:none;stroke-opacity:1" id="path310" d="M 333.121,14.668 H 343.16 V 24.707 H 333.121 Z"/></g><text style="font-variant:normal;font-size:7.54562807px;font-family:'Nimbus Sans';-inkscape-font-specification:NimbusSanL-Regu;writing-mode:lr-tb;fill:#000;fill-opacity:1;fill-rule:nonzero;stroke:none" id="text314" transform="translate(347.35819,21.616392)"><tspan id="tspan312" x="0 5.448 9.643 11.318 15.536 19.732 23.505 27.7" y="0">Released</tspan></text><text style="font-variant:normal;font-size:11.99999905px;font-family:'Nimbus Sans';-inkscape-font-specification:NimbusSanL-Regu;writing-mode:lr-tb;fill:#000;fill-opacity:1;fill-rule:nonzero;stroke:none" id="text334" transform="translate(42.961435,213.19481)"><tspan id="tspan316" x="0 8.004 14.676" y="0">Sep</tspan><tspan id="tspan318" x="-2.672 4 10.672 17.344" y="13.2">2017</tspan><tspan id="tspan320" x="30.012 38.676 45.348 60.336 70.332 77.004 91.008 97.008 103.68 120 128.004 134.676" y="0">DecMarJunSep</tspan><tspan id="tspan322" x="117.328 124 130.672 137.344" y="13.2">2018</tspan><tspan id="tspan324" x="150.012 158.676 165.348 180.336 190.332 197.004 211.008 217.008 223.68 240 248.004 254.676" y="0">DecMarJunSep</tspan><tspan id="tspan326" x="237.328 244 250.672 257.344" y="13.2">2019</tspan><tspan id="tspan328" x="270.012 278.676 285.348 300.336 310.332 317.004 331.008 337.008 343.68 360 368.004 374.676" y="0">DecMarJunSep</tspan><tspan id="tspan330" x="357.328 364 370.672 377.344" y="13.2">2020</tspan><tspan id="tspan332" x="-28.992 -22.992 -16.32 390.012 398.676 405.348" y="0">JunDec</tspan></text></g></g></svg>